<mxfile host="app.diagrams.net" modified="2024-07-19T14:25:18.661Z" agent="Mozilla/5.0 (Windows NT 10.0; Win64; x64) AppleWebKit/537.36 (KHTML, like Gecko) Chrome/126.0.0.0 Safari/537.36" version="24.7.2" etag="ySxW584u1ULVmplk9Au7" type="github">
  <diagram name="PÃ¡gina-1" id="ysTdS1WhL8Acl6R6ASJW">
    <mxGraphModel>
      <root>
        <mxCell id="0" />
        <mxCell id="1" parent="0" />
      </root>
    </mxGraphModel>
  </diagram>
</mxfile>
